<svg width="67" height="67" viewBox="0 0 67 67" fill="none" xmlns="http://www.w3.org/2000/svg">
<path fill-rule="evenodd" clip-rule="evenodd" d="M33.0171 9.62984C24.0172 9.62984 16.7204 16.4052 16.7204 24.7627H13.7571C13.7571 14.8851 22.3801 6.87842 33.0171 6.87842C43.6541 6.87842 52.2771 14.8851 52.2771 24.7627C52.2771 30.9547 48.8859 36.4108 43.7421 39.6203C40.2313 41.8077 37.462 44.7201 37.462 48.0273V48.1498C37.462 54.2276 32.1545 59.1554 25.6089 59.1554C19.0633 59.1554 13.7571 54.2276 13.7571 48.1498V45.3983H16.7204V48.1498C16.7204 52.7089 20.7004 56.404 25.6089 56.404C30.5174 56.404 34.4987 52.7089 34.4987 48.1498V48.0273C34.4987 43.2715 38.392 39.641 42.0899 37.3353C46.4509 34.6169 49.3124 30 49.3124 24.7627C49.3124 16.4052 42.017 9.62984 33.0171 9.62984ZM26.261 23.4145C26.7879 21.0689 28.9615 19.2598 31.6414 19.2598C34.7285 19.2598 37.1442 21.6604 37.1442 24.515H39.8957C39.8957 20.0467 36.1523 16.5084 31.6414 16.5084C27.1304 16.5084 23.3871 20.0467 23.3871 24.515C23.3871 26.7712 24.2662 28.5748 26.1647 29.6175C27.1951 30.183 27.8843 30.6631 28.3053 31.0497C28.4071 31.1441 28.4864 31.2244 28.5433 31.2904C28.2902 31.4101 27.8761 31.5463 27.2556 31.666L27.7729 34.3679C28.6974 34.1918 29.5558 33.9277 30.2065 33.5108C30.8861 33.0747 31.5355 32.3208 31.4474 31.2409C31.3717 30.3247 30.7733 29.5818 30.1652 29.0232C29.5159 28.4262 28.6121 27.8222 27.4881 27.2046C27.0494 26.9782 26.6925 26.6203 26.4673 26.181C27.4207 26.2443 28.5956 26.3901 29.7525 26.7079C31.0498 27.0629 32.2247 27.6049 33.0584 28.3904C33.8412 29.1264 34.3791 30.1238 34.3928 31.5917C34.214 33.464 33.771 34.6733 33.2647 35.4574C32.764 36.2306 32.1628 36.6543 31.5382 36.9006C30.8889 37.1564 30.1721 37.2349 29.4513 37.2349C29.0936 37.2349 28.7496 37.2156 28.4195 37.1936L28.2929 37.1867C28.0173 37.1656 27.7411 37.1527 27.4647 37.1482C26.1578 37.1482 25.4975 38.1607 25.1907 38.755C24.9788 39.1664 24.7711 39.7277 24.5909 40.2105C24.5152 40.4141 24.445 40.604 24.3818 40.7622C24.1204 41.4156 23.8672 41.8903 23.5632 42.2053C23.3087 42.4667 22.9923 42.6469 22.4393 42.6469C21.7088 42.6469 21.3291 42.4818 21.1365 42.3498C20.9544 42.2241 20.8182 42.0425 20.7485 41.8325C20.644 41.5072 20.6121 41.163 20.655 40.8241L20.6536 40.8282V40.831C20.6536 40.831 20.6536 40.8337 19.2985 40.5861L17.9462 40.3398V40.3426L17.9448 40.3453L17.9434 40.3522L17.9407 40.3715C17.9281 40.4444 17.9185 40.5179 17.9118 40.5916C17.898 40.725 17.8843 40.908 17.8843 41.1226C17.8843 41.5463 17.9338 42.1475 18.1649 42.7762C18.3988 43.4201 18.8294 44.1065 19.5819 44.6211C20.3317 45.1342 21.2878 45.3983 22.4393 45.3983C23.7709 45.3983 24.789 44.8921 25.5374 44.1217C26.2335 43.4049 26.6476 42.5066 26.9365 41.783C27.0685 41.4542 27.1703 41.179 27.257 40.9397C27.3946 40.5682 27.4991 40.2834 27.6381 40.0124C27.6592 39.9712 27.6784 39.9358 27.6958 39.9065L28.1086 39.9313L28.2434 39.9409C28.5859 39.9615 29 39.9863 29.4513 39.9863C30.3455 39.9863 31.4474 39.8927 32.5466 39.4608C33.6678 39.0205 34.7409 38.2405 35.5745 36.9515C36.3945 35.6831 36.9365 33.9896 37.1387 31.776C37.1424 31.7348 37.1442 31.6935 37.1442 31.6522C37.1442 29.3713 36.272 27.6379 34.9458 26.3874C33.6596 25.1754 32.0073 24.471 30.4789 24.0528C28.9381 23.6318 27.418 23.4722 26.2995 23.4158L26.261 23.4145Z" fill="#357A7B"/>
</svg>
