<svg width="190" height="45" viewBox="0 0 190 45" fill="none" xmlns="http://www.w3.org/2000/svg">
<path d="M33.75 17.5V20H35V25C35 25.9946 34.6049 26.9484 33.9016 27.6517C33.1984 28.3549 32.2446 28.75 31.25 28.75C30.2554 28.75 29.3016 28.3549 28.5983 27.6517C27.8951 26.9484 27.5 25.9946 27.5 25V20H28.75V17.5H25V25C25.0023 26.44 25.5008 27.8352 26.4116 28.9506C27.3223 30.066 28.5896 30.8335 30 31.1238V32.5C30 33.8261 29.4732 35.0979 28.5355 36.0355C27.5979 36.9732 26.3261 37.5 25 37.5C23.6739 37.5 22.4021 36.9732 21.4645 36.0355C20.5268 35.0979 20 33.8261 20 32.5V29.77C20.834 29.4751 21.5369 28.8949 21.9845 28.1319C22.4321 27.3689 22.5956 26.4722 22.446 25.6003C22.2964 24.7285 21.8434 23.9375 21.1671 23.3674C20.4907 22.7972 19.6346 22.4845 18.75 22.4845C17.8654 22.4845 17.0093 22.7972 16.3329 23.3674C15.6566 23.9375 15.2036 24.7285 15.054 25.6003C14.9044 26.4722 15.0679 27.3689 15.5155 28.1319C15.9631 28.8949 16.666 29.4751 17.5 29.77V32.5C17.5 34.4891 18.2902 36.3968 19.6967 37.8033C21.1032 39.2098 23.0109 40 25 40C26.9891 40 28.8968 39.2098 30.3033 37.8033C31.7098 36.3968 32.5 34.4891 32.5 32.5V31.1238C33.9104 30.8335 35.1777 30.066 36.0884 28.9506C36.9991 27.8352 37.4977 26.44 37.5 25V17.5H33.75ZM18.75 25C18.9972 25 19.2389 25.0733 19.4445 25.2107C19.65 25.348 19.8102 25.5432 19.9048 25.7716C19.9995 26.0001 20.0242 26.2514 19.976 26.4939C19.9278 26.7363 19.8087 26.9591 19.6339 27.1339C19.4591 27.3087 19.2363 27.4278 18.9939 27.476C18.7514 27.5242 18.5001 27.4995 18.2716 27.4049C18.0432 27.3102 17.848 27.15 17.7107 26.9445C17.5733 26.7389 17.5 26.4972 17.5 26.25C17.5 25.9185 17.6317 25.6005 17.8661 25.3661C18.1005 25.1317 18.4185 25 18.75 25Z" fill="#357A7B"/>
<path d="M32.5 7.5H27.5V5H25V7.5H15V5H12.5V7.5H7.5C6.83696 7.5 6.20107 7.76339 5.73223 8.23223C5.26339 8.70107 5 9.33696 5 10V35C5 35.663 5.26339 36.2989 5.73223 36.7678C6.20107 37.2366 6.83696 37.5 7.5 37.5H12.5V35H7.5V10H12.5V12.5H15V10H25V12.5H27.5V10H32.5V15H35V10C35 9.33696 34.7366 8.70107 34.2678 8.23223C33.7989 7.76339 33.163 7.5 32.5 7.5Z" fill="#357A7B"/>
<path d="M66.8864 19.6591H61.2045C61.1288 19.0758 60.9735 18.5492 60.7386 18.0795C60.5038 17.6098 60.1932 17.2083 59.8068 16.875C59.4205 16.5417 58.9621 16.2879 58.4318 16.1136C57.9091 15.9318 57.3295 15.8409 56.6932 15.8409C55.5644 15.8409 54.5909 16.1174 53.7727 16.6705C52.9621 17.2235 52.3371 18.0227 51.8977 19.0682C51.4659 20.1136 51.25 21.3788 51.25 22.8636C51.25 24.4091 51.4697 25.7045 51.9091 26.75C52.3561 27.7879 52.9811 28.572 53.7841 29.1023C54.5947 29.625 55.553 29.8864 56.6591 29.8864C57.2803 29.8864 57.8447 29.8068 58.3523 29.6477C58.8674 29.4886 59.3182 29.2576 59.7045 28.9545C60.0985 28.6439 60.4205 28.2689 60.6705 27.8295C60.928 27.3826 61.1061 26.8788 61.2045 26.3182L66.8864 26.3523C66.7879 27.3826 66.4886 28.3977 65.9886 29.3977C65.4962 30.3977 64.8182 31.3106 63.9545 32.1364C63.0909 32.9545 62.0379 33.6061 60.7955 34.0909C59.5606 34.5758 58.1439 34.8182 56.5455 34.8182C54.4394 34.8182 52.553 34.3561 50.8864 33.4318C49.2273 32.5 47.9167 31.1439 46.9545 29.3636C45.9924 27.5833 45.5114 25.4167 45.5114 22.8636C45.5114 20.303 46 18.1326 46.9773 16.3523C47.9545 14.572 49.2765 13.2197 50.9432 12.2955C52.6098 11.3712 54.4773 10.9091 56.5455 10.9091C57.9545 10.9091 59.2576 11.1061 60.4545 11.5C61.6515 11.8864 62.7045 12.4545 63.6136 13.2045C64.5227 13.947 65.2614 14.8598 65.8295 15.9432C66.3977 17.0265 66.75 18.2652 66.8864 19.6591ZM75.6619 11.2273V34.5H70.1051V11.2273H75.6619ZM79.1989 34.5V17.0455H84.7557V34.5H79.1989ZM81.983 15.0114C81.2027 15.0114 80.5322 14.7538 79.9716 14.2386C79.411 13.7159 79.1307 13.0871 79.1307 12.3523C79.1307 11.625 79.411 11.0038 79.9716 10.4886C80.5322 9.96591 81.2027 9.70454 81.983 9.70454C82.7708 9.70454 83.4413 9.96591 83.9943 10.4886C84.5549 11.0038 84.8352 11.625 84.8352 12.3523C84.8352 13.0871 84.5549 13.7159 83.9943 14.2386C83.4413 14.7538 82.7708 15.0114 81.983 15.0114ZM93.8494 24.5455V34.5H88.2926V17.0455H93.5767V20.25H93.7699C94.1563 19.1818 94.8153 18.3447 95.7472 17.7386C96.679 17.125 97.7888 16.8182 99.0767 16.8182C100.304 16.8182 101.368 17.0947 102.27 17.6477C103.179 18.1932 103.884 18.9583 104.384 19.9432C104.891 20.9205 105.141 22.0644 105.134 23.375V34.5H99.5767V24.4659C99.5843 23.4962 99.3381 22.7386 98.8381 22.1932C98.3456 21.6477 97.66 21.375 96.7812 21.375C96.1979 21.375 95.6828 21.5038 95.2358 21.7614C94.7964 22.0114 94.4555 22.3712 94.2131 22.8409C93.9782 23.3106 93.857 23.8788 93.8494 24.5455ZM108.574 34.5V17.0455H114.131V34.5H108.574ZM111.358 15.0114C110.578 15.0114 109.907 14.7538 109.347 14.2386C108.786 13.7159 108.506 13.0871 108.506 12.3523C108.506 11.625 108.786 11.0038 109.347 10.4886C109.907 9.96591 110.578 9.70454 111.358 9.70454C112.146 9.70454 112.816 9.96591 113.369 10.4886C113.93 11.0038 114.21 11.625 114.21 12.3523C114.21 13.0871 113.93 13.7159 113.369 14.2386C112.816 14.7538 112.146 15.0114 111.358 15.0114ZM138.793 19.6591H133.111C133.035 19.0758 132.88 18.5492 132.645 18.0795C132.41 17.6098 132.099 17.2083 131.713 16.875C131.327 16.5417 130.868 16.2879 130.338 16.1136C129.815 15.9318 129.236 15.8409 128.599 15.8409C127.471 15.8409 126.497 16.1174 125.679 16.6705C124.868 17.2235 124.243 18.0227 123.804 19.0682C123.372 20.1136 123.156 21.3788 123.156 22.8636C123.156 24.4091 123.376 25.7045 123.815 26.75C124.262 27.7879 124.887 28.572 125.69 29.1023C126.501 29.625 127.459 29.8864 128.565 29.8864C129.187 29.8864 129.751 29.8068 130.259 29.6477C130.774 29.4886 131.224 29.2576 131.611 28.9545C132.005 28.6439 132.327 28.2689 132.577 27.8295C132.834 27.3826 133.012 26.8788 133.111 26.3182L138.793 26.3523C138.694 27.3826 138.395 28.3977 137.895 29.3977C137.402 30.3977 136.724 31.3106 135.861 32.1364C134.997 32.9545 133.944 33.6061 132.702 34.0909C131.467 34.5758 130.05 34.8182 128.452 34.8182C126.346 34.8182 124.459 34.3561 122.793 33.4318C121.134 32.5 119.823 31.1439 118.861 29.3636C117.899 27.5833 117.418 25.4167 117.418 22.8636C117.418 20.303 117.906 18.1326 118.884 16.3523C119.861 14.572 121.183 13.2197 122.849 12.2955C124.516 11.3712 126.384 10.9091 128.452 10.9091C129.861 10.9091 131.164 11.1061 132.361 11.5C133.558 11.8864 134.611 12.4545 135.52 13.2045C136.429 13.947 137.168 14.8598 137.736 15.9432C138.304 17.0265 138.656 18.2652 138.793 19.6591ZM146.932 34.7955C145.818 34.7955 144.83 34.6098 143.966 34.2386C143.11 33.8598 142.432 33.2917 141.932 32.5341C141.439 31.7689 141.193 30.8106 141.193 29.6591C141.193 28.6894 141.364 27.8712 141.705 27.2045C142.045 26.5379 142.515 25.9962 143.114 25.5795C143.712 25.1629 144.402 24.8485 145.182 24.6364C145.962 24.4167 146.795 24.2689 147.682 24.1932C148.674 24.1023 149.473 24.0076 150.08 23.9091C150.686 23.803 151.125 23.6553 151.398 23.4659C151.678 23.2689 151.818 22.9924 151.818 22.6364V22.5795C151.818 21.9962 151.617 21.5455 151.216 21.2273C150.814 20.9091 150.273 20.75 149.591 20.75C148.856 20.75 148.265 20.9091 147.818 21.2273C147.371 21.5455 147.087 21.9848 146.966 22.5455L141.841 22.3636C141.992 21.303 142.383 20.3561 143.011 19.5227C143.648 18.6818 144.519 18.0227 145.625 17.5455C146.739 17.0606 148.076 16.8182 149.636 16.8182C150.75 16.8182 151.777 16.9508 152.716 17.2159C153.655 17.4735 154.473 17.8523 155.17 18.3523C155.867 18.8447 156.405 19.4508 156.784 20.1705C157.17 20.8902 157.364 21.7121 157.364 22.6364V34.5H152.136V32.0682H152C151.689 32.6591 151.292 33.1591 150.807 33.5682C150.33 33.9773 149.765 34.2841 149.114 34.4886C148.47 34.6932 147.742 34.7955 146.932 34.7955ZM148.648 31.1591C149.246 31.1591 149.784 31.0379 150.261 30.7955C150.746 30.553 151.133 30.2197 151.42 29.7955C151.708 29.3636 151.852 28.8636 151.852 28.2955V26.6364C151.693 26.7197 151.5 26.7955 151.273 26.8636C151.053 26.9318 150.811 26.9962 150.545 27.0568C150.28 27.1174 150.008 27.1705 149.727 27.2159C149.447 27.2614 149.178 27.303 148.92 27.3409C148.398 27.4242 147.951 27.553 147.58 27.7273C147.216 27.9015 146.936 28.1288 146.739 28.4091C146.549 28.6818 146.455 29.0076 146.455 29.3864C146.455 29.9621 146.659 30.4015 147.068 30.7045C147.485 31.0076 148.011 31.1591 148.648 31.1591ZM160.761 34.5V17.0455H166.159V20.2273H166.341C166.659 19.0758 167.178 18.2197 167.898 17.6591C168.617 17.0909 169.455 16.8068 170.409 16.8068C170.667 16.8068 170.932 16.8258 171.205 16.8636C171.477 16.8939 171.731 16.9432 171.966 17.0114V21.8409C171.701 21.75 171.352 21.678 170.92 21.625C170.496 21.572 170.117 21.5455 169.784 21.5455C169.125 21.5455 168.53 21.6932 168 21.9886C167.477 22.2765 167.064 22.6818 166.761 23.2045C166.466 23.7197 166.318 24.3258 166.318 25.0227V34.5H160.761ZM181.483 34.8295C179.657 34.8295 178.081 34.4697 176.756 33.75C175.438 33.0227 174.422 31.9886 173.71 30.6477C173.006 29.2992 172.653 27.697 172.653 25.8409C172.653 24.0379 173.009 22.4621 173.722 21.1136C174.434 19.7576 175.438 18.7045 176.733 17.9545C178.028 17.197 179.555 16.8182 181.312 16.8182C182.555 16.8182 183.691 17.0114 184.722 17.3977C185.752 17.7841 186.642 18.3561 187.392 19.1136C188.142 19.8712 188.725 20.8068 189.142 21.9205C189.559 23.0265 189.767 24.2955 189.767 25.7273V27.1136H174.597V23.8864H184.597C184.589 23.2955 184.449 22.7689 184.176 22.3068C183.903 21.8447 183.528 21.4848 183.051 21.2273C182.581 20.9621 182.04 20.8295 181.426 20.8295C180.805 20.8295 180.248 20.9697 179.756 21.25C179.263 21.5227 178.873 21.8977 178.585 22.375C178.297 22.8447 178.146 23.3788 178.131 23.9773V27.2614C178.131 27.9735 178.271 28.5985 178.551 29.1364C178.831 29.6667 179.229 30.0795 179.744 30.375C180.259 30.6705 180.873 30.8182 181.585 30.8182C182.078 30.8182 182.525 30.75 182.926 30.6136C183.328 30.4773 183.672 30.2765 183.96 30.0114C184.248 29.7462 184.464 29.4205 184.608 29.0341L189.71 29.1818C189.498 30.3258 189.032 31.322 188.312 32.1705C187.6 33.0114 186.665 33.6667 185.506 34.1364C184.347 34.5985 183.006 34.8295 181.483 34.8295Z" fill="#357A7B"/>
</svg>
