<svg width="59" height="59" viewBox="0 0 59 59" fill="none" xmlns="http://www.w3.org/2000/svg">
<path d="M44.9782 23.7466C43.7207 23.2388 42.1973 23.1421 41.2542 24.1093L24.1576 41.1817C23.2145 42.1248 23.2871 43.6724 23.7949 44.9057C24.0851 45.6312 24.1818 46.3566 24.1818 47.1546C24.1818 48.758 23.5449 50.2956 22.4111 51.4294C21.2774 52.5631 19.7397 53.2001 18.1364 53.2001C16.533 53.2001 14.9953 52.5631 13.8616 51.4294C12.7278 50.2956 12.0909 48.758 12.0909 47.1546C12.0909 46.5259 11.5105 45.9455 10.8818 45.9455C9.99375 45.9352 9.11886 45.7294 8.31936 45.3427C7.51986 44.9559 6.81539 44.3978 6.25604 43.7079C5.6967 43.0181 5.29622 42.2135 5.08308 41.3513C4.86994 40.4891 4.84938 39.5906 5.02286 38.7196C5.19634 37.8486 5.5596 37.0265 6.0868 36.3118C6.61401 35.5971 7.29221 35.0073 8.07319 34.5844C8.85416 34.1615 9.71872 33.9159 10.6054 33.865C11.492 33.8141 12.379 33.9591 13.2033 34.2899C14.4124 34.7977 15.96 34.8944 16.9031 33.9272L33.9996 16.8548C34.9427 15.9117 34.8702 14.3641 34.3624 13.1308C34.0722 12.4053 33.8545 11.6799 33.8545 10.8819C33.8545 9.27853 34.4915 7.74084 35.6252 6.6071C36.759 5.47336 38.2966 4.83643 39.9 4.83643C41.5033 4.83643 43.041 5.47336 44.1748 6.6071C45.3085 7.74084 45.9454 9.27853 45.9454 10.8819C45.9696 11.5106 46.5258 12.0668 47.1545 12.091C48.0487 12.0799 48.9342 12.2673 49.7472 12.6397C50.5602 13.0122 51.2804 13.5603 51.856 14.2446C52.4316 14.929 52.8482 15.7325 53.0758 16.5973C53.3034 17.4621 53.3363 18.3666 53.1722 19.2456C53.008 20.1246 52.6509 20.9563 52.1266 21.6807C51.6023 22.4051 50.9238 23.0041 50.14 23.4346C49.3563 23.8652 48.4867 24.1165 47.5941 24.1704C46.7015 24.2244 45.8081 24.0796 44.9782 23.7466V23.7466Z" stroke="#357A7B" stroke-width="2" stroke-linecap="round" stroke-linejoin="round"/>
</svg>
