<svg width="57" height="57" viewBox="0 0 57 57" fill="none" xmlns="http://www.w3.org/2000/svg">
<path d="M15.5444 5.92529H16.5944C22.1239 6.74298 23.623 9.88102 28.4414 9.88102C33.2599 9.88102 34.759 6.74298 40.2896 5.92529H40.8845C42.363 5.92529 43.8269 6.21649 45.1928 6.78226C46.5587 7.34803 47.7998 8.1773 48.8452 9.2227C49.8906 10.2681 50.7199 11.5092 51.2856 12.8751C51.8514 14.241 52.1426 15.7049 52.1426 17.1834V17.9252C52.1426 21.3654 48.4808 25.2927 47.4024 29.0138C46.2588 32.9648 45.4755 36.1953 45.2456 39.5739C44.7063 47.4912 42.0068 50.9575 39.1069 50.9575C34.7767 50.9575 30.9324 33.2113 28.5161 33.2113C26.0985 33.2113 21.305 50.9575 17.7759 50.9575C15.6226 50.9575 12.8342 49.6836 11.7866 39.5739C11.3694 35.5518 10.6655 33.1117 9.48046 29.0138C8.43761 25.4112 4.92035 21.1071 4.74022 17.2438C4.67227 15.7827 4.90138 14.323 5.41369 12.953C5.92599 11.583 6.71085 10.3311 7.7208 9.27306C8.73075 8.21503 9.9448 7.37285 11.2895 6.79743C12.6343 6.22201 14.0817 5.92532 15.5444 5.92529Z" stroke="#357A7B" stroke-width="2" stroke-linecap="round" stroke-linejoin="round"/>
<path d="M18.3471 14.7695L37.9231 21.0812M18.3471 21.0812L37.9231 14.7695" stroke="#357A7B" stroke-width="2" stroke-linecap="round" stroke-linejoin="round"/>
</svg>
